<svg xmlns="http://www.w3.org/2000/svg" version="1.1" xmlns:xlink="http://www.w3.org/1999/xlink" width="1024" height="1024"><svg width="1024" height="1024" viewBox="0 0 1024 1024" fill="none" xmlns="http://www.w3.org/2000/svg">
<rect width="1024" height="1024" rx="512" fill="#181818"></rect>
<rect x="4" y="4" width="1016" height="1016" rx="508" stroke="white" stroke-opacity="0.2" stroke-width="8"></rect>
<path d="M512 147.332C713.4 147.332 876.668 310.6 876.668 512C876.668 713.4 713.4 876.668 512 876.668C310.6 876.668 147.332 713.4 147.332 512C147.332 310.6 310.6 147.332 512 147.332ZM336.012 330.175C330.051 328.348 323.994 328.652 318.22 330.231C306.611 333.408 296.367 341.687 291.023 347.528C268.366 372.297 254.059 395.297 245.396 421.103C236.724 446.931 233.67 475.676 233.67 512C233.67 665.595 358.155 774.773 512 774.773C665.845 774.773 790.33 665.595 790.33 512C790.33 475.675 787.276 446.929 778.604 421.101C769.941 395.295 755.632 372.295 732.974 347.525C727.712 341.774 716.527 334.096 704.376 331.216C698.326 329.782 692.125 329.559 686.331 331.272C680.565 332.978 675.092 336.633 670.505 343.153L670.504 343.155L565.784 491.669L565.774 491.684L565.764 491.697C551.064 511.631 533.978 523.226 515.463 523.9C496.944 524.574 477.558 514.303 458.307 491.792L458.257 491.732L458.212 491.669L353.511 343.183C347.932 335.974 341.952 331.996 336.012 330.175Z" fill="#F8D62B" stroke="#F8D62B" stroke-width="3.33529"></path>
</svg><style>@media (prefers-color-scheme: light) { :root { filter: none; } }
@media (prefers-color-scheme: dark) { :root { filter: none; } }
</style></svg>