<svg width="800" height="500" viewBox="0 0 800 500" xmlns="http://www.w3.org/2000/svg">
  <defs>
    <linearGradient id="water" x1="0" y1="0" x2="0" y2="1">
      <stop offset="0%" stop-color="#5B9BD5"/>
      <stop offset="100%" stop-color="#2E75B6"/>
    </linearGradient>
  </defs>
  <!-- Sky -->
  <rect width="800" height="280" fill="#FDE8D0"/>
  <!-- Water -->
  <rect x="0" y="280" width="800" height="220" fill="url(#water)"/>
  <!-- Pier -->
  <rect x="300" y="260" width="200" height="40" fill="#A08060" rx="2"/>
  <rect x="340" y="300" width="20" height="60" fill="#8B7355"/>
  <rect x="440" y="300" width="20" height="60" fill="#8B7355"/>
  <!-- Statue base -->
  <rect x="370" y="200" width="60" height="80" fill="#808080"/>
  <!-- Statue figure -->
  <ellipse cx="400" cy="160" rx="35" ry="50" fill="#C0C0C0"/>
  <!-- Head -->
  <circle cx="400" cy="105" r="20" fill="#D4C5A0"/>
  <!-- Crown -->
  <polygon points="385,90 390,75 395,88 400,72 405,88 410,75 415,90" fill="#DAA520"/>
  <!-- Arms holding figures -->
  <line x1="365" y1="145" x2="340" y2="130" stroke="#C0C0C0" stroke-width="8" stroke-linecap="round"/>
  <line x1="435" y1="145" x2="460" y2="130" stroke="#C0C0C0" stroke-width="8" stroke-linecap="round"/>
  <circle cx="335" cy="120" r="12" fill="#DAA520"/>
  <circle cx="465" cy="120" r="12" fill="#8B0000"/>
  <!-- Sun -->
  <circle cx="680" cy="80" r="50" fill="#FFD700" opacity="0.6"/>
  <!-- Waves -->
  <path d="M0,320 Q50,310 100,320 Q150,330 200,320 Q250,310 300,320 Q350,330 400,320 Q450,310 500,320 Q550,330 600,320 Q650,310 700,320 Q750,330 800,320" fill="none" stroke="#fff" stroke-width="2" opacity="0.3"/>
  <!-- Label -->
  <text x="400" y="470" text-anchor="middle" font-family="system-ui" font-size="22" fill="#fff" font-weight="600">Imperia</text>
</svg>
