<svg width="800" height="500" viewBox="0 0 800 500" xmlns="http://www.w3.org/2000/svg">
  <defs>
    <linearGradient id="glass" x1="0" y1="0" x2="0" y2="1">
      <stop offset="0%" stop-color="#E8F4FD"/>
      <stop offset="100%" stop-color="#B8D4E8"/>
    </linearGradient>
  </defs>
  <rect width="800" height="500" fill="#87CEEB"/>
  <!-- Ground -->
  <rect x="0" y="400" width="800" height="100" fill="#888"/>
  <!-- Building -->
  <rect x="150" y="120" width="500" height="290" fill="#F5F5F5" rx="6"/>
  <!-- Glass facade -->
  <rect x="160" y="130" width="480" height="270" fill="url(#glass)" rx="4"/>
  <!-- Grid lines (glass panels) -->
  <line x1="280" y1="130" x2="280" y2="400" stroke="#ccc" stroke-width="1"/>
  <line x1="400" y1="130" x2="400" y2="400" stroke="#ccc" stroke-width="1"/>
  <line x1="520" y1="130" x2="520" y2="400" stroke="#ccc" stroke-width="1"/>
  <line x1="160" y1="200" x2="640" y2="200" stroke="#ccc" stroke-width="1"/>
  <line x1="160" y1="270" x2="640" y2="270" stroke="#ccc" stroke-width="1"/>
  <line x1="160" y1="340" x2="640" y2="340" stroke="#ccc" stroke-width="1"/>
  <!-- Entrance -->
  <rect x="350" y="350" width="100" height="50" fill="#4A90D9" rx="2"/>
  <!-- LAGO text on building -->
  <text x="400" y="180" text-anchor="middle" font-family="system-ui" font-size="48" fill="#2563eb" font-weight="700" letter-spacing="8">LAGO</text>
  <!-- People (simple) -->
  <circle cx="320" cy="420" r="6" fill="#555"/>
  <line x1="320" y1="426" x2="320" y2="445" stroke="#555" stroke-width="3"/>
  <circle cx="480" cy="418" r="6" fill="#555"/>
  <line x1="480" y1="424" x2="480" y2="443" stroke="#555" stroke-width="3"/>
  <!-- Label -->
  <text x="400" y="480" text-anchor="middle" font-family="system-ui" font-size="22" fill="#fff" font-weight="600">LAGO Shopping-Center</text>
</svg>
