<svg width="800" height="500" viewBox="0 0 800 500" xmlns="http://www.w3.org/2000/svg">
  <defs>
    <linearGradient id="sky" x1="0" y1="0" x2="0" y2="1">
      <stop offset="0%" stop-color="#87CEEB"/>
      <stop offset="100%" stop-color="#E0F0FF"/>
    </linearGradient>
  </defs>
  <rect width="800" height="500" fill="url(#sky)"/>
  <!-- Ground -->
  <rect x="0" y="380" width="800" height="120" fill="#8B9467"/>
  <rect x="0" y="370" width="800" height="20" fill="#A0A878"/>
  <!-- Cathedral body -->
  <rect x="250" y="150" width="300" height="230" fill="#D4C5A0" rx="4"/>
  <!-- Tower -->
  <rect x="370" y="50" width="60" height="330" fill="#C8B890"/>
  <!-- Spire -->
  <polygon points="400,10 370,80 430,80" fill="#6B7B5E"/>
  <!-- Windows -->
  <circle cx="400" cy="200" r="30" fill="#4A6FA5" opacity="0.6"/>
  <rect x="310" y="280" width="30" height="50" fill="#4A6FA5" opacity="0.5" rx="15"/>
  <rect x="360" y="280" width="30" height="50" fill="#4A6FA5" opacity="0.5" rx="15"/>
  <rect x="410" y="280" width="30" height="50" fill="#4A6FA5" opacity="0.5" rx="15"/>
  <rect x="460" y="280" width="30" height="50" fill="#4A6FA5" opacity="0.5" rx="15"/>
  <!-- Door -->
  <rect x="365" y="320" width="70" height="60" fill="#5C4A3A" rx="35"/>
  <!-- Cross -->
  <rect x="396" y="15" width="8" height="25" fill="#8B7355"/>
  <rect x="389" y="22" width="22" height="8" fill="#8B7355"/>
  <!-- Label -->
  <text x="400" y="470" text-anchor="middle" font-family="system-ui" font-size="22" fill="#fff" font-weight="600">Konstanzer Münster</text>
</svg>
