<svg width="1024" height="1024" viewBox="0 0 1024 1024" fill="none" xmlns="http://www.w3.org/2000/svg">
<path d="M512 170.5C700.605 170.5 853.5 323.395 853.5 512C853.5 700.605 700.605 853.5 512 853.5C323.395 853.5 170.5 700.605 170.5 512C170.5 323.395 323.395 170.5 512 170.5ZM347.181 341.637C341.584 339.921 335.899 340.206 330.481 341.688C319.593 344.667 309.989 352.431 304.979 357.907C283.753 381.112 270.346 402.662 262.229 426.842C254.104 451.043 251.243 477.974 251.243 512C251.243 655.902 367.873 758.186 512 758.186C656.127 758.186 772.757 655.902 772.757 512C772.757 477.974 769.896 451.041 761.771 426.84C753.652 402.659 740.246 381.109 719.019 357.904C714.082 352.508 703.595 345.311 692.201 342.61C686.527 341.266 680.707 341.055 675.268 342.664C669.853 344.266 664.715 347.698 660.411 353.816L660.41 353.817L562.326 492.921L562.317 492.935L562.308 492.947C548.545 511.61 532.557 522.455 515.241 523.085C497.922 523.715 479.781 514.11 461.756 493.032L461.711 492.979L461.67 492.921L363.607 353.849C358.374 347.084 352.761 343.347 347.181 341.637Z" fill="white" stroke="white" stroke-width="3"/>
</svg>
