<svg width="1024" height="1024" viewBox="0 0 1024 1024" fill="none" xmlns="http://www.w3.org/2000/svg">
<path d="M515.714 104.592C516.403 105.506 586.851 198.868 657.146 311.452C692.29 367.739 727.445 428.91 753.828 485.782C780.141 542.503 797.996 595.499 798 635.247L797.994 637.095C797.001 794.047 669.581 920.992 512.52 921C354.836 921 227 793.054 227 635.247L227.014 633.369C227.567 593.742 245.359 541.362 271.366 485.376C297.857 428.348 333.141 367.024 368.373 310.65C403.613 254.263 438.847 202.755 465.267 165.349C478.478 146.644 489.489 131.46 497.198 120.95C501.053 115.695 504.083 111.608 506.15 108.833C507.184 107.446 507.977 106.386 508.513 105.673C508.78 105.316 508.984 105.046 509.12 104.864C509.188 104.774 509.24 104.705 509.274 104.659C509.292 104.636 509.305 104.619 509.313 104.607C509.318 104.602 509.322 104.597 509.324 104.594C509.329 104.593 509.419 104.658 512.52 107L509.327 104.589L512.522 100.359L515.714 104.592ZM512.519 360.227C503.066 372.996 474.086 412.798 445.191 459.084C427.696 487.109 410.282 517.433 397.254 545.525C384.156 573.769 375.759 599.211 375.759 617.659C375.762 693.248 436.998 754.533 512.52 754.533C588.041 754.533 649.277 693.248 649.277 617.659C649.277 599.223 640.892 573.803 627.809 545.581C614.796 517.51 597.398 487.208 579.915 459.195C550.999 412.865 521.982 373.013 512.519 360.227Z" fill="url(#paint0_linear_1194_1020)" stroke="#0199FF" stroke-width="8"/>
<defs>
<linearGradient id="paint0_linear_1194_1020" x1="512.5" y1="107" x2="512.5" y2="917" gradientUnits="userSpaceOnUse">
<stop stop-color="#0068AD"/>
<stop offset="0.524038" stop-color="#0099FF"/>
</linearGradient>
</defs>
</svg>
