<svg width="1024" height="1024" viewBox="0 0 1024 1024" fill="none" xmlns="http://www.w3.org/2000/svg">
<g clip-path="url(#clip0_1157_1021)">
<path d="M718 680.822C718.086 679.84 726.81 581.275 726.81 468.975C726.811 412.833 724.631 353.142 718.074 300.442C711.543 247.95 700.588 201.636 682.59 172.802L681.752 171.471C610.279 58.593 461.047 24.3752 347.637 95.1765L347.636 95.177C233.78 166.265 199.159 316.279 270.301 430.221L271.161 431.577C289.504 460.064 325.979 489.821 369.726 518.344C414.343 547.435 467.179 575.651 517.723 600.322C568.286 625.001 616.652 646.179 652.371 661.185C670.233 668.689 684.939 674.652 695.183 678.741C700.305 680.785 704.312 682.362 707.041 683.428C708.405 683.961 709.451 684.365 710.156 684.638C710.508 684.774 710.775 684.878 710.955 684.947C711.045 684.981 711.114 685.008 711.16 685.025C711.183 685.034 711.201 685.041 711.212 685.045C711.218 685.048 711.223 685.05 711.226 685.051C711.231 685.047 711.288 684.901 713.018 680.383L711.231 685.052L717.419 687.422L718 680.822ZM598.175 496.448C583.924 490.79 547.127 475.786 507.768 456.551C482.699 444.3 456.695 430.382 434.85 416.118C412.829 401.741 395.678 387.415 387.618 374.505C354.242 321.046 370.489 250.665 423.897 217.319C477.305 183.972 547.674 200.274 581.051 253.732C589.106 266.634 594.446 288.312 597.698 314.387C600.923 340.254 602.015 369.705 602.02 397.593C602.027 441.441 599.35 481.141 598.175 496.448Z" fill="url(#paint0_linear_1157_1021)" stroke="url(#paint1_linear_1157_1021)" stroke-width="10"/>
<path d="M236.12 340.905C236.033 341.889 227.309 440.453 227.309 552.751C227.309 608.894 229.488 668.585 236.045 721.284C242.576 773.776 253.531 820.091 271.53 848.924L272.367 850.256C343.84 963.134 493.072 997.351 606.482 926.55L606.483 926.549C720.339 855.461 754.96 705.448 683.818 591.505L682.958 590.15C664.615 561.663 628.14 531.905 584.393 503.382C539.777 474.292 486.941 446.075 436.396 421.405C385.833 396.725 337.468 375.547 301.749 360.541C283.886 353.037 269.18 347.074 258.936 342.986C253.814 340.941 249.807 339.364 247.078 338.299C245.714 337.766 244.669 337.361 243.964 337.089C243.611 336.952 243.344 336.849 243.164 336.78C243.074 336.745 243.005 336.719 242.96 336.701C242.937 336.692 242.919 336.686 242.907 336.681C242.901 336.679 242.896 336.677 242.893 336.676C242.888 336.679 242.831 336.825 241.101 341.343L242.889 336.674L236.7 334.305L236.12 340.905ZM355.944 525.279C370.195 530.936 406.992 545.94 446.351 565.175C471.42 577.427 497.424 591.344 519.269 605.608C541.29 619.986 558.441 634.311 566.502 647.221C599.877 700.681 583.63 771.061 530.222 804.408C476.814 837.754 406.446 821.453 373.068 767.994C365.013 755.093 359.673 733.414 356.421 707.34C353.196 681.472 352.104 652.021 352.1 624.133C352.092 580.285 354.769 540.586 355.944 525.279Z" fill="url(#paint2_linear_1157_1021)" stroke="url(#paint3_linear_1157_1021)" stroke-width="10"/>
</g>
<defs>
<linearGradient id="paint0_linear_1157_1021" x1="338.942" y1="530.717" x2="590.382" y2="158.592" gradientUnits="userSpaceOnUse">
<stop offset="0.524038" stop-color="#0099FF"/>
</linearGradient>
<linearGradient id="paint1_linear_1157_1021" x1="631.654" y1="100.663" x2="602.46" y2="687.653" gradientUnits="userSpaceOnUse">
<stop stop-color="white"/>
<stop offset="0.519231" stop-color="#015C99"/>
</linearGradient>
<linearGradient id="paint2_linear_1157_1021" x1="325.872" y1="926.52" x2="670.74" y2="445.94" gradientUnits="userSpaceOnUse">
<stop stop-color="#004471"/>
<stop offset="0.524038" stop-color="#0099FF"/>
</linearGradient>
<linearGradient id="paint3_linear_1157_1021" x1="549.586" y1="385.957" x2="447.163" y2="907.487" gradientUnits="userSpaceOnUse">
<stop offset="0.610577" stop-color="#0099FF" stop-opacity="0"/>
<stop offset="0.807692"/>
</linearGradient>
<clipPath id="clip0_1157_1021">
<rect width="1024" height="1024" fill="white"/>
</clipPath>
</defs>
</svg>
