<svg width="280" height="280" viewBox="0 0 280 280" fill="none" xmlns="http://www.w3.org/2000/svg">
<path fill-rule="evenodd" clip-rule="evenodd" d="M280 140C280 217.32 217.32 280 140 280C62.6801 280 0 217.32 0 140C0 62.6801 62.6801 0 140 0C217.32 0 280 62.6801 280 140ZM247.988 140C247.988 199.64 199.64 241.988 140 241.988C80.3598 241.988 32.0118 199.64 32.0118 140C32.0118 111.918 36.7308 95.3397 54.3005 76.1331C58.5193 71.5212 70.5 63 79.3937 74.511L119.781 131.788C134.5 149 149 147 160.218 131.788L200.605 74.5101C208 64 221.48 71.5203 225.699 76.1321C243.269 95.3388 247.988 111.918 247.988 140Z" fill="#F7D44C"/>
</svg>
