<svg width="1024" height="1024" viewBox="0 0 1024 1024" fill="none" xmlns="http://www.w3.org/2000/svg">
<path d="M514.908 204.611C515.487 205.378 574.431 283.48 633.247 377.663C662.652 424.75 692.069 475.927 714.148 523.514C736.164 570.963 751.126 615.339 751.13 648.652V648.653C751.13 780.287 644.918 887.108 513.562 887.947L512.016 887.952C379.942 887.952 272.869 780.807 272.869 648.653V648.652C272.873 615.26 287.907 570.752 310.013 523.174C332.182 475.458 361.708 424.152 391.187 376.992C420.673 329.82 450.153 286.732 472.258 255.439C483.312 239.792 492.524 227.089 498.975 218.297C502.2 213.901 504.736 210.482 506.466 208.16C507.331 207 507.994 206.113 508.442 205.517C508.666 205.218 508.836 204.992 508.95 204.84C509.007 204.764 509.051 204.707 509.08 204.668C509.095 204.649 509.106 204.634 509.113 204.624C509.117 204.619 509.12 204.616 509.122 204.613C509.13 204.616 509.263 204.713 512.016 206.793L509.125 204.608L512.019 200.778L514.908 204.611ZM512.015 419.072C503.887 430.061 479.87 463.093 455.923 501.446C441.289 524.883 426.726 550.237 415.834 573.721C404.878 597.341 397.877 618.574 397.877 633.94C397.879 697.014 448.985 748.154 512.016 748.154C575.046 748.154 626.152 697.014 626.152 633.94C626.152 618.585 619.161 597.37 608.218 573.768C597.338 550.302 582.789 524.966 568.165 501.539C544.2 463.148 520.152 430.075 512.015 419.072Z" fill="url(#paint0_linear_1157_1011)" stroke="#0199FF" stroke-width="7.24638"/>
<rect x="267.435" y="146.107" width="489.13" height="155.797" rx="57.971" fill="#0099FF"/>
<rect x="267.435" y="146.107" width="489.13" height="155.797" rx="57.971" fill="url(#paint1_linear_1157_1011)" fill-opacity="0.26"/>
<rect x="267.435" y="146.107" width="489.13" height="155.797" rx="57.971" stroke="url(#paint2_linear_1157_1011)" stroke-width="10.8696"/>
<defs>
<linearGradient id="paint0_linear_1157_1011" x1="511.999" y1="206.793" x2="511.999" y2="884.329" gradientUnits="userSpaceOnUse">
<stop stop-color="#004471"/>
<stop offset="0.466346" stop-color="#0099FF"/>
<stop offset="0.721154" stop-color="#0099FF"/>
<stop offset="1" stop-color="#003C64"/>
</linearGradient>
<linearGradient id="paint1_linear_1157_1011" x1="512" y1="307.339" x2="512" y2="140.672" gradientUnits="userSpaceOnUse">
<stop/>
<stop offset="0.0961538" stop-opacity="0"/>
<stop offset="0.846154" stop-opacity="0"/>
<stop offset="0.947115"/>
</linearGradient>
<linearGradient id="paint2_linear_1157_1011" x1="512" y1="140.672" x2="512" y2="307.339" gradientUnits="userSpaceOnUse">
<stop stop-color="#73C7FF"/>
<stop offset="1" stop-color="#005C99" stop-opacity="0"/>
</linearGradient>
</defs>
</svg>
