<svg xmlns="http://www.w3.org/2000/svg" viewBox="0 0 512 512">
  <defs>
    <linearGradient id="bg" x1="0%" y1="0%" x2="100%" y2="100%">
      <stop offset="0%" style="stop-color:#06b6d4"/>
      <stop offset="100%" style="stop-color:#0891b2"/>
    </linearGradient>
  </defs>
  <rect width="512" height="512" rx="96" ry="96" fill="url(#bg)"/>
  <!-- Folder base -->
  <path d="M120 200 L120 380 Q120 400 140 400 L372 400 Q392 400 392 380 L392 200 Z" fill="rgba(255,255,255,0.2)"/>
  <!-- Folder tab -->
  <path d="M120 200 L120 170 Q120 150 140 150 L220 150 L240 170 L260 150 L392 150 Q392 150 392 170 L392 200 Z" fill="rgba(255,255,255,0.3)"/>
  <!-- Cloud icon -->
  <g fill="white" opacity="0.9">
    <ellipse cx="256" cy="290" rx="60" ry="40"/>
    <ellipse cx="220" cy="300" rx="40" ry="35"/>
    <ellipse cx="290" cy="300" rx="40" ry="35"/>
    <rect x="196" y="295" width="120" height="40" rx="0"/>
  </g>
  <!-- Upload arrow -->
  <g stroke="rgba(6,182,212,0.8)" stroke-width="16" stroke-linecap="round" fill="none">
    <line x1="256" y1="320" x2="256" y2="265"/>
    <polyline points="232,285 256,265 280,285"/>
  </g>
</svg>
