<svg width="1024" height="1024" viewBox="0 0 1024 1024" fill="none" xmlns="http://www.w3.org/2000/svg">
<path d="M357.154 224L467.722 359.888C446.34 369.454 427.208 380.426 410.328 392.805C394.01 405.185 381.349 420.94 372.346 440.071C363.344 458.64 358.842 482.835 358.842 512.657L174 508.437C174 453.294 183.847 406.873 203.541 369.173C223.798 330.91 247.993 299.962 276.127 276.33C304.824 252.697 331.833 235.254 357.154 224ZM460.969 508.437V760.802H174V508.437H460.969ZM739.499 224L850.066 359.888C829.247 369.454 810.397 380.426 793.516 392.805C776.636 405.185 763.694 420.94 754.691 440.071C745.688 458.64 741.187 482.835 741.187 512.657L556.345 508.437C556.345 453.294 566.192 406.873 585.886 369.173C606.142 330.91 630.338 299.962 658.472 276.33C687.169 252.697 714.178 235.254 739.499 224ZM843.314 508.437V760.802H556.345V508.437H843.314Z" fill="white"/>
</svg>
