<svg width="1024" height="1024" viewBox="0 0 1024 1024" fill="none" xmlns="http://www.w3.org/2000/svg">
<circle cx="512.5" cy="512.5" r="403.614" stroke="#004D81" stroke-width="95.7727"/>
<path d="M583.883 512.512C582.858 513.285 367.199 676.079 277.02 676.088C186.632 676.088 113.352 602.857 113.347 512.512C113.347 422.164 186.63 348.914 277.02 348.914C367.414 348.923 583.883 512.512 583.883 512.512ZM440.67 512.512C439.972 511.984 332.285 430.713 287.237 430.713C242.045 430.714 205.402 467.339 205.402 512.512C205.402 557.686 242.045 594.31 287.237 594.31C332.256 594.31 439.828 513.148 440.67 512.512Z" fill="url(#paint0_linear_1157_667)"/>
<path d="M512.512 440.52C513.285 441.544 676.079 657.203 676.088 747.383C676.088 837.77 602.857 911.051 512.512 911.055C422.163 911.055 348.914 837.773 348.914 747.383C348.923 656.988 512.512 440.52 512.512 440.52ZM512.512 583.733C511.984 584.431 430.713 692.117 430.713 737.165C430.714 782.357 467.339 819 512.512 819C557.685 819 594.31 782.357 594.31 737.165C594.31 692.146 513.148 584.574 512.512 583.733Z" fill="url(#paint1_linear_1157_667)"/>
<path d="M440.521 512.488C441.546 511.715 657.205 348.921 747.385 348.912C837.772 348.912 911.053 422.143 911.057 512.488C911.057 602.836 837.775 676.086 747.385 676.086C656.99 676.077 440.521 512.488 440.521 512.488ZM583.735 512.488C584.433 513.016 692.119 594.287 737.167 594.287C782.359 594.286 819.002 557.661 819.002 512.488C819.002 467.314 782.359 430.69 737.167 430.69C692.148 430.69 584.576 511.852 583.735 512.488Z" fill="url(#paint2_linear_1157_667)"/>
<path d="M512.488 583.883C511.715 582.858 348.921 367.199 348.912 277.02C348.912 186.632 422.143 113.352 512.488 113.347C602.836 113.347 676.086 186.63 676.086 277.02C676.077 367.414 512.488 583.883 512.488 583.883ZM512.488 440.67C513.016 439.972 594.287 332.285 594.287 287.237C594.285 242.045 557.661 205.402 512.488 205.402C467.314 205.402 430.69 242.045 430.69 287.237C430.69 332.256 511.852 439.828 512.488 440.67Z" fill="url(#paint3_linear_1157_667)"/>
<defs>
<linearGradient id="paint0_linear_1157_667" x1="583.883" y1="512.501" x2="113.347" y2="512.501" gradientUnits="userSpaceOnUse">
<stop offset="0.211538" stop-color="#004471"/>
<stop offset="0.788462" stop-color="#0099FF"/>
</linearGradient>
<linearGradient id="paint1_linear_1157_667" x1="512.501" y1="440.52" x2="512.501" y2="911.055" gradientUnits="userSpaceOnUse">
<stop offset="0.211538" stop-color="#004471"/>
<stop offset="0.788462" stop-color="#0099FF"/>
</linearGradient>
<linearGradient id="paint2_linear_1157_667" x1="440.521" y1="512.499" x2="911.057" y2="512.499" gradientUnits="userSpaceOnUse">
<stop offset="0.211538" stop-color="#004471"/>
<stop offset="0.788462" stop-color="#0099FF"/>
</linearGradient>
<linearGradient id="paint3_linear_1157_667" x1="512.499" y1="583.883" x2="512.499" y2="113.347" gradientUnits="userSpaceOnUse">
<stop offset="0.211538" stop-color="#004471"/>
<stop offset="0.788462" stop-color="#0099FF"/>
</linearGradient>
</defs>
</svg>
