<svg width="1024" height="1024" viewBox="0 0 1024 1024" fill="none" xmlns="http://www.w3.org/2000/svg">
<path d="M512 130C722.973 130 894 301.027 894 512C894 722.973 722.973 894 512 894C301.027 894 130 722.973 130 512C130 301.027 301.027 130 512 130ZM328.076 324.825C322.366 323.075 316.506 323.345 310.81 324.903C299.274 328.059 288.955 336.364 283.562 342.26C260.131 367.874 245.424 391.558 236.524 418.066C227.606 444.63 224.432 474.286 224.432 512C224.432 670.525 352.874 783.368 512 783.368C671.126 783.368 799.568 670.525 799.568 512C799.568 474.285 796.393 444.629 787.475 418.064C778.574 391.555 763.867 367.872 740.435 342.257C735.237 336.575 723.981 328.835 711.804 325.948C705.777 324.52 699.735 324.331 694.177 325.975C688.685 327.599 683.404 331.086 678.906 337.479L678.903 337.482L569.857 492.133L569.832 492.168L569.808 492.202C554.287 513.249 535.932 525.917 515.688 526.654C495.436 527.391 474.644 516.138 454.368 492.428L454.247 492.286L454.139 492.133L345.154 337.57C339.593 330.392 333.746 326.563 328.076 324.825Z" fill="#F8D62B"/>
<path d="M512 130C722.973 130 894 301.027 894 512C894 722.973 722.973 894 512 894C301.027 894 130 722.973 130 512C130 301.027 301.027 130 512 130ZM328.076 324.825C322.366 323.075 316.506 323.345 310.81 324.903C299.274 328.059 288.955 336.364 283.562 342.26C260.131 367.874 245.424 391.558 236.524 418.066C227.606 444.63 224.432 474.286 224.432 512C224.432 670.525 352.874 783.368 512 783.368C671.126 783.368 799.568 670.525 799.568 512C799.568 474.285 796.393 444.629 787.475 418.064C778.574 391.555 763.867 367.872 740.435 342.257C735.237 336.575 723.981 328.835 711.804 325.948C705.777 324.52 699.735 324.331 694.177 325.975C688.685 327.599 683.404 331.086 678.906 337.479L678.903 337.482L569.857 492.133L569.832 492.168L569.808 492.202C554.287 513.249 535.932 525.917 515.688 526.654C495.436 527.391 474.644 516.138 454.368 492.428L454.247 492.286L454.139 492.133L345.154 337.57C339.593 330.392 333.746 326.563 328.076 324.825Z" fill="url(#paint0_linear_1194_760)" fill-opacity="0.55"/>
<path d="M512 130C722.973 130 894 301.027 894 512C894 722.973 722.973 894 512 894C301.027 894 130 722.973 130 512C130 301.027 301.027 130 512 130ZM328.076 324.825C322.366 323.075 316.506 323.345 310.81 324.903C299.274 328.059 288.955 336.364 283.562 342.26C260.131 367.874 245.424 391.558 236.524 418.066C227.606 444.63 224.432 474.286 224.432 512C224.432 670.525 352.874 783.368 512 783.368C671.126 783.368 799.568 670.525 799.568 512C799.568 474.285 796.393 444.629 787.475 418.064C778.574 391.555 763.867 367.872 740.435 342.257C735.237 336.575 723.981 328.835 711.804 325.948C705.777 324.52 699.735 324.331 694.177 325.975C688.685 327.599 683.404 331.086 678.906 337.479L678.903 337.482L569.857 492.133L569.832 492.168L569.808 492.202C554.287 513.249 535.932 525.917 515.688 526.654C495.436 527.391 474.644 516.138 454.368 492.428L454.247 492.286L454.139 492.133L345.154 337.57C339.593 330.392 333.746 326.563 328.076 324.825Z" stroke="#FFE97B" stroke-width="8"/>
<defs>
<linearGradient id="paint0_linear_1194_760" x1="512" y1="134" x2="512" y2="890" gradientUnits="userSpaceOnUse">
<stop offset="0.5" stop-opacity="0"/>
<stop offset="0.971154" stop-opacity="0.18"/>
</linearGradient>
</defs>
</svg>
