<svg xmlns="http://www.w3.org/2000/svg" viewBox="0 0 512 512">
  <defs>
    <linearGradient id="bg" x1="0%" y1="0%" x2="100%" y2="100%">
      <stop offset="0%" style="stop-color:#3b82f6"/>
      <stop offset="100%" style="stop-color:#2563eb"/>
    </linearGradient>
  </defs>
  <!-- Rounded rectangle background -->
  <rect width="512" height="512" rx="96" ry="96" fill="url(#bg)"/>
  <!-- Calendar top bar -->
  <rect x="80" y="120" width="352" height="48" rx="8" fill="rgba(255,255,255,0.3)"/>
  <!-- Calendar rings -->
  <rect x="160" y="96" width="24" height="56" rx="12" fill="white"/>
  <rect x="328" y="96" width="24" height="56" rx="12" fill="white"/>
  <!-- Calendar body -->
  <rect x="80" y="168" width="352" height="248" rx="0 0 16 16" fill="rgba(255,255,255,0.15)"/>
  <!-- Grid lines horizontal -->
  <line x1="80" y1="230" x2="432" y2="230" stroke="rgba(255,255,255,0.15)" stroke-width="2"/>
  <line x1="80" y1="292" x2="432" y2="292" stroke="rgba(255,255,255,0.15)" stroke-width="2"/>
  <line x1="80" y1="354" x2="432" y2="354" stroke="rgba(255,255,255,0.15)" stroke-width="2"/>
  <!-- Grid lines vertical -->
  <line x1="130" y1="168" x2="130" y2="416" stroke="rgba(255,255,255,0.15)" stroke-width="2"/>
  <line x1="180" y1="168" x2="180" y2="416" stroke="rgba(255,255,255,0.15)" stroke-width="2"/>
  <line x1="230" y1="168" x2="230" y2="416" stroke="rgba(255,255,255,0.15)" stroke-width="2"/>
  <line x1="280" y1="168" x2="280" y2="416" stroke="rgba(255,255,255,0.15)" stroke-width="2"/>
  <line x1="330" y1="168" x2="330" y2="416" stroke="rgba(255,255,255,0.15)" stroke-width="2"/>
  <line x1="380" y1="168" x2="380" y2="416" stroke="rgba(255,255,255,0.15)" stroke-width="2"/>
  <!-- Today highlight -->
  <rect x="232" y="294" width="46" height="58" rx="8" fill="white" opacity="0.9"/>
  <text x="255" y="333" font-family="system-ui, -apple-system, sans-serif" font-size="32" font-weight="700" fill="#2563eb" text-anchor="middle">24</text>
</svg>
