<svg width="976" height="1494" viewBox="0 0 976 1494" fill="none" xmlns="http://www.w3.org/2000/svg">
<path d="M879.659 598.222C1138.12 971.956 845.101 1595.52 354.539 1478.83C-8.51264 1392.48 -86.2368 898.229 91.5863 620.206C98.6866 609.098 105.593 599.305 113.563 588.808C103.139 606.044 87.3094 628.814 79.0242 646.105C78.5243 647.142 74.5622 653.631 78.2373 653.168L107.277 613.143L154.369 567.621C117.396 606.692 88.6055 655.926 68.0265 705.753C65.8233 711.094 58.6582 728.829 57.825 733.226C56.7882 738.669 58.3804 735.595 60.1764 734.013L115.118 658.666C79.1353 701.875 62.0278 757.237 55.4644 812.497C77.5893 762.791 99.5198 710.446 135.531 669.653C97.4276 727.542 84.162 796.613 74.303 864.296C91.9844 815.866 110.591 765.938 141.807 724.59C100.242 799.899 97.5758 888.214 99.418 972.604C99.7883 903.931 121.348 838.933 145.732 775.601C130.356 854.391 138.447 935.856 159.859 1012.63C152.221 911.494 167.959 813.154 208.524 720.665C187.936 801.13 195.147 886.788 219.513 965.541C217.689 875.07 230.371 783.802 267.391 701.041C245.507 763.013 249.451 830.251 259.541 894.119L278.38 956.905C266.466 857.464 291.016 759.079 316.844 664.155C301.995 741.917 309.058 820.754 317.631 898.831L350.596 723.025C342.634 781.905 346.606 841.849 355.308 900.405C358.113 919.269 364.704 938.235 367.87 956.915C368.592 961.163 365.065 976.362 371.008 975.751C372.619 852.235 374.905 723.581 427.524 610.005C402.011 673.902 399.178 748.739 414.962 815.635C415.471 817.792 416.211 827.576 419.674 825.049C418.063 747.212 431.041 668.107 463.627 597.444C445.501 670.181 454.833 746.99 475.402 817.986C471.635 733.726 489.39 650.817 503.656 568.398C494.537 645.457 509.478 722.137 512.293 798.363L537.408 613.134C540.759 610.551 541.435 618.679 542.12 620.983C555.098 665.044 554.58 719.054 561.745 764.614L589.998 635.895C596.265 712.427 607.606 788.81 600.2 865.86L639.451 762.263L627.675 905.894C651.152 824.382 665.047 739.89 665.353 654.741C672.786 724.34 682.969 794.114 677.128 864.296L705.381 712.038L721.868 931.015C738.263 867.406 749.668 807.924 741.494 741.862C738.355 716.5 729.913 692.211 725.006 667.302C758.351 751.303 786.447 838.109 776.023 930.228C794.232 868.378 797.047 801.88 789.363 737.937C810.988 811.673 829.901 888.667 823.115 966.328L835.677 897.257C836.353 866.258 836.205 835.795 830.178 805.425L866.282 987.516C882.362 904.838 877.39 816.283 843.518 738.715C867.254 772.982 882.232 812.877 894.535 852.522C895.988 813.96 885.796 775.879 871.771 740.288C889.767 759.764 899.701 786.598 910.235 810.137C901.126 760.365 882.121 711.131 854.506 668.08C880.39 696.811 901.071 730.319 918.086 764.614C906.606 700.292 873.725 640.82 829.391 592.733C863.884 622.946 890.786 661.961 911.809 701.828C918.363 699.968 867.032 597.75 862.357 589.595C848.535 565.492 827.892 542.323 815.265 519.747C829.382 530.271 868.226 581.746 879.631 598.231L879.659 598.222Z" fill="url(#paint0_linear_119_1586)"/>
<path d="M879.659 598.222C868.254 581.737 829.41 530.262 815.293 519.738C815.08 519.58 815.83 516.701 814.506 516.6L812.154 518.951C812.33 520.274 815.191 519.552 815.293 519.738C827.92 542.323 848.563 565.492 862.384 589.586C867.059 597.741 918.391 699.958 911.837 701.819C890.814 661.952 863.903 622.936 829.419 592.724C873.752 640.81 906.644 700.282 918.113 764.605C901.098 730.31 880.418 696.802 854.534 668.07C882.149 711.122 901.154 760.356 910.263 810.127C899.738 786.589 889.795 759.745 871.799 740.279C885.824 775.87 896.016 813.95 894.563 852.512C882.251 812.877 867.272 772.982 843.546 738.706C877.418 816.274 882.38 904.829 866.31 987.507L830.206 805.416C836.223 835.786 836.372 866.249 835.705 897.248L823.143 966.319C829.928 888.658 811.016 811.664 789.391 737.928C797.074 801.871 794.251 868.368 776.051 930.219C786.475 838.1 758.379 751.294 725.034 667.293C729.941 692.202 738.374 716.49 741.521 741.853C749.696 807.915 738.291 867.397 721.896 931.006L705.409 712.029L677.156 864.286C682.997 794.105 672.814 724.33 665.38 654.732C665.075 739.881 651.18 824.373 627.703 905.884L639.478 762.254L600.227 865.851C607.633 788.801 596.293 712.418 590.026 635.886L561.773 764.605C554.617 719.045 555.126 665.034 542.147 620.974C541.472 618.669 540.796 610.542 537.435 613.125L512.32 798.353C509.506 722.127 494.574 645.448 503.683 568.389C489.418 650.807 471.662 733.707 475.43 817.977C454.86 746.981 445.529 670.172 463.655 597.435C431.069 668.098 418.091 747.203 419.701 825.039C416.239 827.566 415.499 817.782 414.989 815.626C399.206 748.73 402.029 673.893 427.552 609.996C374.933 723.571 372.647 852.216 371.036 975.742C365.083 976.353 368.62 961.154 367.898 956.905C364.732 938.226 358.14 919.26 355.335 900.395C346.634 841.84 342.662 781.896 350.624 723.016L317.658 898.822C309.086 820.745 302.023 741.917 316.871 664.146C291.053 759.069 266.493 857.455 278.407 956.896L259.569 894.11C249.478 830.241 245.535 763.003 267.419 701.032C230.399 783.793 217.717 875.061 219.54 965.532C195.175 886.788 187.964 801.121 208.552 720.656C167.987 813.145 152.249 911.484 159.887 1012.62C138.465 935.847 130.384 854.382 145.76 775.592C121.376 838.915 99.8253 903.922 99.4457 972.595C97.6035 888.214 100.27 799.89 141.835 724.58C110.61 765.928 92.0122 815.857 74.3308 864.286C84.1898 796.595 97.4554 727.533 135.558 669.644C99.5476 710.437 77.6263 762.781 55.4922 812.488C62.0556 757.227 79.1631 701.865 115.146 658.657L60.2041 734.003C58.4082 735.586 56.816 738.659 57.8528 733.217C58.686 728.82 65.8511 711.094 68.0543 705.744C88.6332 655.908 117.423 606.673 154.397 567.611L107.305 613.134L78.2651 653.158C74.59 653.621 78.5521 647.133 79.052 646.096C87.3372 628.805 103.167 606.034 113.591 588.799C114.905 587.068 132.476 568.963 126.931 568.389C120.515 573.961 117.794 581.838 113.591 588.799C105.62 599.286 98.7144 609.089 91.6141 620.197C88.1982 620.067 86.4485 624.038 86.9021 617.845C87.5501 608.978 118.099 549.793 124.579 537.787C234.13 334.666 417.044 152.677 621.445 45.6832C635.831 38.1578 706.862 1.64152 717.212 0.160501C718.628 -0.0431383 721.877 -0.265257 722.711 0.947324C682.117 75.4979 694.087 177.234 714.86 256.811C746.807 379.208 819.977 488.47 879.696 598.222H879.659Z" fill="url(#paint1_linear_119_1586)"/>
<path d="M591.589 84.9301C591.515 87.2257 595.727 99.1016 595.514 99.8421C592.617 109.7 528.149 157.842 520.947 174.402C525.261 160.601 502.664 185.13 506.034 168.904C506.607 166.164 535.499 137.747 534.287 135.942C533.074 134.137 528.918 136.173 528.01 134.368C546.821 114.004 568.354 100.064 591.589 84.9209V84.9301Z" fill="#FAE5B9"/>
<path d="M627.693 84.9301C638.524 83.7823 615.77 105.192 614.353 107.691C613.789 108.691 618.168 107.636 616.705 110.043C608.614 123.39 601.69 132.471 592.367 145.365C578.093 140.394 574.01 162.341 566.466 168.126C562.485 171.181 555.385 167.321 552.339 174.402C548.608 171.569 565.447 147.855 568.826 143.791C584.813 124.547 612.696 107.099 627.693 84.9301Z" fill="#FAE5B9"/>
<path d="M638.691 301.547C646.162 310.165 638.904 331.945 637.904 343.145C637.08 352.383 641.024 363.259 635.553 370.618C636.794 357.668 630.23 361.139 630.054 360.417C626.564 345.866 635.701 316.709 638.691 301.556V301.547Z" fill="#FAE5B9"/>
<path d="M113.562 588.808C117.775 581.848 120.496 573.971 126.902 568.398C132.447 568.963 114.868 587.077 113.562 588.808Z" fill="#FDF5DB"/>
<path d="M502.108 172.828C507.45 172.079 498.202 184.556 494.258 182.242C493.934 180.196 501.497 172.912 502.108 172.828Z" fill="#FAE5B9"/>
<path d="M815.292 519.738C815.191 519.562 812.321 520.274 812.154 518.951L814.506 516.6C815.829 516.701 815.08 519.58 815.292 519.738Z" fill="#E1C8A6"/>
<defs>
<linearGradient id="paint0_linear_119_1586" x1="228.39" y1="630.888" x2="799.68" y2="1327.68" gradientUnits="userSpaceOnUse">
<stop offset="0.22" stop-color="#FEBB58"/>
<stop offset="0.5" stop-color="#F89847"/>
<stop offset="1" stop-color="#D5441B"/>
</linearGradient>
<linearGradient id="paint1_linear_119_1586" x1="849.711" y1="472.391" x2="112.896" y2="742.975" gradientUnits="userSpaceOnUse">
<stop stop-color="#F8DAAA"/>
<stop offset="0.77" stop-color="#FDFAE9"/>
</linearGradient>
</defs>
</svg>
